{"title":"Source Code 2011 PPVRiP XViD-IMAGiNE","uid":6449514,"size":1554852510,"categoryP":"video","categoryS":"movies","magnet":"?xt=urn:btih:ef4c4da82e2e3ed022633800209fd9366c38c438&amp;dn=Source+Code+2011+PPVRiP+XViD-IMAGiNE&amp;tr=udp%3A%2F%2Ftracker.openbittorrent.com%3A80&amp;tr=udp%3A%2F%2Fopen.demonii.com%3A1337&amp;tr=udp%3A%2F%2Ftracker.coppersurfer.tk%3A6969&amp;tr=udp%3A%2F%2Fexodus.desync.com%3A6969","seeders":0,"leechers":0,"uploader":"kokak2010","files":4,"time":1307374701,"description":"                   Another Fine Release Brought to you from - IMAGiNE                   \n                                                 \n\n********************************************************************************************************************                                \n                                 Source Code 2011 PPVRiP XViD - IMAGiNE\n********************************************************************************************************************\n\nRipper ...........: IMAGiNE                                      IMDB Rating.......: 7.7/10                             \nVideo Codec.......: XVID                                         Release Date......: 05/06/11\nAudio Codec.......: MP3                                          Theatre Date......: 01/04/11\nAudio Bitrate.....: 224                                          Runtime.......: 1h 32mn\nSubtitles.........: NIL                                          Language..........: ENGLISH\nResolution......: 720 x 480                                      IMDb URL..........: http://www.imdb.com/title/tt0945513/\n\n\nDETAILS:\n\nVideo\nID                               : 0\nFormat                           : MPEG-4 Visual\nFormat profile                   : Advanced Simple@L5\nFormat settings, BVOP            : 2\nFormat settings, QPel            : No\nFormat settings, GMC             : No warppoints\nFormat settings, Matrix          : Default (MPEG)\nMuxing mode                      : Packed bitstream\nCodec ID                         : XVID\nCodec ID/Hint                    : XviD\nDuration                         : 1h 32mn\nBit rate                         : 1 975 Kbps\nWidth                            : 720 pixels\nHeight                           : 480 pixels\nDisplay aspect ratio             : 3:2\nFrame rate                       : 29.970 fps\nStandard                         : NTSC\nColor space                      : YUV\nChroma subsampling               : 4:2:0\nBit depth                        : 8 bits\nScan type                        : Progressive\nCompression mode                 : Lossy\nBits/(Pixel*Frame)               : 0.191\nStream size                      : 1.28 GiB (89%)\nWriting library                  : XviD 1.2.1 (UTC 2008-12-04)\n\nAudio\nID                               : 1\nFormat                           : MPEG Audio\nFormat version                   : Version 1\nFormat profile                   : Layer 2\nCodec ID                         : 50\nDuration                         : 1h 32mn\nBit rate mode                    : Constant\nBit rate                         : 224 Kbps\nChannel(s)                       : 2 channels\nSampling rate                    : 48.0 KHz\nCompression mode                 : Lossy\nStream size                      : 149 MiB (10%)\nAlignment                        : Split accross interleaves\nInterleave, duration             : 33 ms (1.00 video frame)\n\n\n\nSOURCES:\n\nThanks M8ty :D\n\nNOTES:\n\nIMAGiNE bringing you another release..........\nSource Code PPVRiP..........\nHere we are with a nice ppvrip of Source Code :P\nSource files were very nice, \njust needed some adjustment to the colors\nThen we remuxed the audio to our encode and there ya go :P\nAnyhow\nEnjoy Folks!\n\nSCREENS:\n\n","torrent":{"xt":"urn:btih:ef4c4da82e2e3ed022633800209fd9366c38c438","amp;dn":"Source+Code+2011+PPVRiP+XViD-IMAGiNE","amp;tr":["udp%3A%2F%2Ftracker.openbittorrent.com%3A80","udp%3A%2F%2Fopen.demonii.com%3A1337","udp%3A%2F%2Ftracker.coppersurfer.tk%3A6969","udp%3A%2F%2Fexodus.desync.com%3A6969"],"infoHash":"ef4c4da82e2e3ed022633800209fd9366c38c438","infoHashBuffer":{"type":"Buffer","data":[239,76,77,168,46,46,62,208,34,99,56,0,32,159,217,54,108,56,196,56]},"announce":[],"urlList":[]}}